
<svg version="1.1" id="Layer_1" xmlns="http://www.w3.org/2000/svg" xmlns:xlink="http://www.w3.org/1999/xlink" x="0px" y="0px" viewBox="0 0 1133.858 275.999" style="enable-background:new 0 0 1133.858 275.999;" xml:space="preserve">
<g>
	<g>
		<g>
			<path class="st0" d="M1084.945,172.356c9.678-9.384,24.341-9.384,33.725,0c9.677,9.384,9.677,24.047,0,33.431
				c-9.384,9.384-24.047,9.384-33.725,0C1075.561,196.403,1075.561,181.74,1084.945,172.356z"></path>
		</g>
		<path class="st0" d="M932.219,193.143c16.132,15.252,35.491,21.74,58.075,21.74c22.878,0,42.232-7.631,58.368-22.878
			c16.871-15.94,23.758-39.614,23.758-69.887V6.624h-43.703v66.854c-11.782-10.981-28.87-13.544-40.313-13.544
			c-22.585,0-40.054,7.086-56.186,22.045c-16.132,15.252-24.052,33.731-24.052,55.728
			C908.167,159.706,916.087,178.184,932.219,193.143z M963.016,110.137c7.333-7.333,16.425-11.146,27.278-11.146
			c10.852,0,19.945,3.813,27.278,11.146s11.146,16.719,11.146,27.57c0,10.853-3.813,19.946-11.146,27.279
			c-7.333,7.626-16.426,11.439-27.278,11.439c-10.853,0-19.945-3.813-27.278-11.439c-7.333-7.333-11.146-16.426-11.146-27.279
			C951.87,126.856,955.683,117.763,963.016,110.137z"></path>
		<g>
			<path class="st0" d="M1084.669,172.356c9.678-9.384,24.341-9.384,33.725,0c9.677,9.384,9.677,24.047,0,33.431
				c-9.384,9.384-24.047,9.384-33.725,0C1075.285,196.403,1075.285,181.74,1084.669,172.356z"></path>
		</g>
		<path class="st0" d="M188.65,5.792h43.695v149.562c0,13.196,4.985,19.062,17.009,19.062c4.105,0,7.624-0.293,10.556-1.174v38.711
			c-4.985,1.465-12.023,2.053-20.821,2.053c-33.725,0-50.44-17.303-50.44-51.906V5.792z"></path>
		<path class="st0" d="M290.707,82.038c14.076-14.956,31.672-22.287,52.493-22.287c22.287,0,39.589,9.091,43.988,21.994V62.39
			h43.695v95.895c0,11.73,2.933,16.422,10.851,16.422c2.052,0,4.692-0.293,7.331-0.586v36.363
			c-4.692,1.467-11.144,2.346-19.648,2.346c-9.677,0-17.889-1.76-24.048-5.278c-6.744-4.399-11.143-9.677-13.196-15.836
			c-9.677,14.369-25.807,21.408-48.973,21.408c-20.822,0-38.417-7.331-52.493-21.994c-13.783-14.956-20.822-33.138-20.822-54.84
			C269.886,114.883,276.924,96.702,290.707,82.038z M378.391,162.685c7.624-7.331,11.436-16.129,11.436-26.394
			c0-10.263-3.812-19.062-11.436-26.1c-7.332-7.331-16.422-10.849-27.274-10.849c-10.557,0-19.355,3.518-26.686,10.849
			c-7.332,7.038-10.851,15.836-10.851,26.1c0,10.265,3.519,19.063,10.851,26.394c7.331,7.038,16.129,10.556,26.686,10.556
			C361.969,173.241,371.059,169.723,378.391,162.685z"></path>
		<path class="st0" d="M468.424,210.192V62.39h43.695v18.475c6.158-12.904,22.581-21.701,42.522-21.701
			c35.484,0,56.012,22.873,56.012,61.291v37.244c0,11.436,2.346,15.542,9.677,15.542h2.933l1.759-0.293v36.951
			c-3.519,1.465-9.971,2.053-19.062,2.053c-26.101,0-39.003-14.076-39.003-42.229v-43.989c0-17.302-9.091-27.86-26.394-27.86
			c-16.422,0-28.446,12.023-28.446,29.327v82.991H468.424z"></path>
		<path class="st0" d="M650.248,101.98h-19.355V62.39h19.355V5.792h42.522V62.39h32.845v39.59H692.77v52.786
			c0,14.076,5.572,19.649,18.768,19.649c2.346,0,6.158-0.293,11.144-1.174v38.711c-5.866,1.465-12.904,2.053-21.408,2.053
			c-34.018,0-51.026-17.596-51.026-52.787V101.98z"></path>
		<path class="st0" d="M738.226,135.997c0-23.168,7.624-41.936,22.581-56.012c14.956-14.369,34.31-21.408,57.478-21.408
			c22.581,0,40.764,7.331,54.84,21.702c14.076,14.369,21.113,31.964,21.113,53.372c0,4.987-0.293,9.679-0.586,14.076h-111.73
			c0.879,17.596,16.129,29.034,39.295,29.034c13.783,0,25.807-4.692,36.072-14.369l25.514,24.34
			c-17.303,17.889-38.711,26.981-63.638,26.981c-24.34,0-43.694-7.04-58.65-20.821c-14.957-14.076-22.288-32.552-22.288-55.719
			V135.997z M850.251,119.282c0-13.783-14.369-24.633-31.966-24.633c-19.062,0-34.605,10.849-35.777,24.633H850.251z"></path>
		<path class="st0" d="M145.877,80.218c-16.132-15.252-35.491-21.74-58.075-21.74c-22.878,0-42.232,7.631-58.368,22.878
			c-16.871,15.94-23.758,39.614-23.758,69.887v115.495h43.703v-66.854c11.782,10.981,28.87,13.544,40.313,13.544
			c22.585,0,40.054-7.086,56.186-22.045c16.132-15.252,24.052-33.731,24.052-55.728C169.928,113.656,162.009,95.177,145.877,80.218z
			 M115.079,163.225c-7.333,7.333-16.425,11.146-27.278,11.146c-10.852,0-19.945-3.813-27.278-11.146
			c-7.333-7.333-11.146-16.719-11.146-27.57c0-10.853,3.813-19.946,11.146-27.279c7.333-7.626,16.426-11.439,27.278-11.439
			c10.853,0,19.945,3.813,27.278,11.439c7.333,7.333,11.146,16.426,11.146,27.279C126.225,146.506,122.412,155.599,115.079,163.225z
			"></path>
	</g>
</g>
</svg>